<svg xmlns="http://www.w3.org/2000/svg" version="1.1" xmlns:xlink="http://www.w3.org/1999/xlink" xmlns:svgjs="http://svgjs.com/svgjs" width="1440" height="560" preserveAspectRatio="none" viewBox="0 0 1440 560"><g mask="url(&quot;#SvgjsMask1003&quot;)" fill="none"><rect width="1440" height="560" x="0" y="0" fill="rgba(245, 245, 245, 1)"></rect><path d="M1022.8396549072714 423.34460042270314L1104.4053804505177 388.72200406373065 1069.7827840915452 307.15627852048453 988.217058548299 341.778874879457z" fill="rgba(60, 114, 170, 0.19)" class="triangle-float2"></path><path d="M677.6061800667733 415.0441722052298L670.3795565514015 518.3897032614685 829.0111648934453 477.5568730064069z" fill="rgba(60, 114, 170, 0.19)" class="triangle-float1"></path><path d="M532.3971577151747 627.5491762442441L624.6128311021255 538.4975355931902 535.5611904510716 446.2818622062394 443.34551706412077 535.3335028572933z" fill="rgba(60, 114, 170, 0.19)" class="triangle-float2"></path><path d="M1442.819,235.997C1488.994,236.655,1537.998,229.39,1564.104,191.297C1593.47,148.447,1599.734,90.651,1572.915,46.162C1546.787,2.818,1493.333,-13.021,1442.819,-9.899C1397.723,-7.112,1360.657,21.666,1337.885,60.689C1314.896,100.083,1303.954,148.786,1327.38,187.922C1350.325,226.255,1398.148,235.36,1442.819,235.997" fill="rgba(60, 114, 170, 0.19)" class="triangle-float2"></path></g><defs><mask id="SvgjsMask1003"><rect width="1440" height="560" fill="#ffffff"></rect></mask><style>
            @keyframes float1 {
                0%{transform: translate(0, 0)}
                50%{transform: translate(-10px, 0)}
                100%{transform: translate(0, 0)}
            }

            .triangle-float1 {
                animation: float1 5s infinite;
            }

            @keyframes float2 {
                0%{transform: translate(0, 0)}
                50%{transform: translate(-5px, -5px)}
                100%{transform: translate(0, 0)}
            }

            .triangle-float2 {
                animation: float2 4s infinite;
            }

            @keyframes float3 {
                0%{transform: translate(0, 0)}
                50%{transform: translate(0, -10px)}
                100%{transform: translate(0, 0)}
            }

            .triangle-float3 {
                animation: float3 6s infinite;
            }
        </style></defs></svg>